ModelForces
version=1
nRows=4
nColumns=155
inDegrees=no

This file contains the forces exerted on a model during a simulation.

A force is a generalized force, meaning that it can be either a force (N) or a torque (Nm).

Units are S.I. units (second, meters, Newtons, ...)
Angles are in degrees.

endheader
time	glut_med1_r	glut_med2_r	glut_med3_r	glut_min1_r	glut_min2_r	glut_min3_r	semimem_r	semiten_r	bifemlh_r	bifemsh_r	sar_r	add_long_r	add_brev_r	add_mag1_r	add_mag2_r	add_mag3_r	tfl_r	pect_r	grac_r	glut_max1_r	glut_max2_r	glut_max3_r	iliacus_r	psoas_r	quad_fem_r	gem_r	peri_r	rect_fem_r	vas_med_r	vas_int_r	vas_lat_r	med_gas_r	lat_gas_r	soleus_r	tib_post_r	flex_dig_r	flex_hal_r	tib_ant_r	per_brev_r	per_long_r	per_tert_r	ext_dig_r	ext_hal_r	glut_med1_l	glut_med2_l	glut_med3_l	glut_min1_l	glut_min2_l	glut_min3_l	semimem_l	semiten_l	bifemlh_l	bifemsh_l	sar_l	add_long_l	add_brev_l	add_mag1_l	add_mag2_l	add_mag3_l	tfl_l	pect_l	grac_l	glut_max1_l	glut_max2_l	glut_max3_l	iliacus_l	psoas_l	quad_fem_l	gem_l	peri_l	rect_fem_l	vas_med_l	vas_int_l	vas_lat_l	med_gas_l	lat_gas_l	soleus_l	tib_post_l	flex_dig_l	flex_hal_l	tib_ant_l	per_brev_l	per_long_l	per_tert_l	ext_dig_l	ext_hal_l	ercspn_r	ercspn_l	intobl_r	intobl_l	extobl_r	extobl_l	femur_lat_meniscii_r.femur_lat_r.force.X	femur_lat_meniscii_r.femur_lat_r.force.Y	femur_lat_meniscii_r.femur_lat_r.force.Z	femur_lat_meniscii_r.femur_lat_r.torque.X	femur_lat_meniscii_r.femur_lat_r.torque.Y	femur_lat_meniscii_r.femur_lat_r.torque.Z	femur_lat_meniscii_r.meniscus_lat_r.force.X	femur_lat_meniscii_r.meniscus_lat_r.force.Y	femur_lat_meniscii_r.meniscus_lat_r.force.Z	femur_lat_meniscii_r.meniscus_lat_r.torque.X	femur_lat_meniscii_r.meniscus_lat_r.torque.Y	femur_lat_meniscii_r.meniscus_lat_r.torque.Z	femur_med_meniscii_r.femur_med_r.force.X	femur_med_meniscii_r.femur_med_r.force.Y	femur_med_meniscii_r.femur_med_r.force.Z	femur_med_meniscii_r.femur_med_r.torque.X	femur_med_meniscii_r.femur_med_r.torque.Y	femur_med_meniscii_r.femur_med_r.torque.Z	femur_med_meniscii_r.meniscus_med_r.force.X	femur_med_meniscii_r.meniscus_med_r.force.Y	femur_med_meniscii_r.meniscus_med_r.force.Z	femur_med_meniscii_r.meniscus_med_r.torque.X	femur_med_meniscii_r.meniscus_med_r.torque.Y	femur_med_meniscii_r.meniscus_med_r.torque.Z	femur_med_tibia_r.tibia_upper_r.force.X	femur_med_tibia_r.tibia_upper_r.force.Y	femur_med_tibia_r.tibia_upper_r.force.Z	femur_med_tibia_r.tibia_upper_r.torque.X	femur_med_tibia_r.tibia_upper_r.torque.Y	femur_med_tibia_r.tibia_upper_r.torque.Z	femur_med_tibia_r.femur_med_r.force.X	femur_med_tibia_r.femur_med_r.force.Y	femur_med_tibia_r.femur_med_r.force.Z	femur_med_tibia_r.femur_med_r.torque.X	femur_med_tibia_r.femur_med_r.torque.Y	femur_med_tibia_r.femur_med_r.torque.Z	femur_lat_tibia_r.tibia_upper_r.force.X	femur_lat_tibia_r.tibia_upper_r.force.Y	femur_lat_tibia_r.tibia_upper_r.force.Z	femur_lat_tibia_r.tibia_upper_r.torque.X	femur_lat_tibia_r.tibia_upper_r.torque.Y	femur_lat_tibia_r.tibia_upper_r.torque.Z	femur_lat_tibia_r.femur_lat_r.force.X	femur_lat_tibia_r.femur_lat_r.force.Y	femur_lat_tibia_r.femur_lat_r.force.Z	femur_lat_tibia_r.femur_lat_r.torque.X	femur_lat_tibia_r.femur_lat_r.torque.Y	femur_lat_tibia_r.femur_lat_r.torque.Z	aACL_R	pACL_R	aPCL_R	pPCL_R	aMCL_R	mMCL_R	pMCL_R	aLCL_R	mLCL_R	pLCL_R	aPCL_L	pPCL_L	aMCL_L	aLCL_L
      0.16501804	     11.40771296	      8.32871325	      8.95771585	      3.84580263	      4.47074391	      4.83725503	      0.00000000	    165.36799803	    143.57017766	    300.29636725	    129.81072721	      8.28899002	      5.96910304	      3.58602231	      3.63171323	      6.12065708	      4.96367059	      3.24612542	     99.29768427	      5.37768394	      8.18079260	      6.14754601	     27.51596797	     18.49360789	      5.28816416	      3.65084723	      6.23672011	     54.41787873	     31.09421042	     33.29382148	     45.03261278	      0.00000000	      0.00000000	      0.00000000	      0.00000000	      0.00000000	      0.00000000	     33.95253411	      2.24789284	      2.84567080	     58.01559759	     42.72392466	     10.92842434	     11.40771296	      8.32871325	      8.95771585	      3.84580263	      4.47074391	      4.83725503	      0.00000000	      6.17116695	     12.18367064	     10.52538332	      2.19434592	      8.28899002	      5.96910304	      3.58602231	      3.63171323	      6.12065708	      5.41659256	      3.24612542	      2.26519033	      5.37768394	      8.18079260	      6.14754601	     27.51596797	     18.49360789	      5.28816416	      3.65084723	      6.23672011	     16.96901995	      0.00000000	      0.00000000	      0.00000000	     21.15808086	      9.99455733	     50.69030327	     50.92162477	      5.43846898	      4.86548195	     13.20614587	      7.06347552	     18.15025499	      2.85939739	      8.80792596	      2.76733252	     36.19918524	     36.19918524	     13.44818508	     13.44818508	     30.81455658	     30.81455658	    115.66384629	    206.20463289	     26.44783349	    -15.65316609	      2.83012795	     45.23481576	   -115.66384629	   -206.20463289	    -26.44783349	      5.74237108	     -3.54860224	      3.70958638	     27.76664846	     24.31174025	     12.09015504	     -4.31649776	     -0.62563560	     11.13045386	    -27.76664846	    -24.31174025	    -12.09015504	     -0.31862165	      0.33473273	      0.09968220	   -743.80491324	   -680.55559109	    222.97201130	    -15.76987076	     16.89430746	     -1.00445104	    743.80491324	    680.55559109	   -222.97201130	    102.94053624	    -13.40689513	    302.43845990	      0.00000000	      0.00000000	      0.00000000	      0.00000000	      0.00000000	      0.00000000	      0.00000000	      0.00000000	      0.00000000	      0.00000000	      0.00000000	      0.00000000	     -0.98297534	      0.00000000	    580.49928347	    375.09699475	      0.00000000	      0.00000000	      0.00000000	      0.00000000	      0.00000000	      0.00000000	      0.00000000	      0.00000000	      0.00000001	      0.00000000
      0.16523367	     11.39734028	      8.32114848	      8.94948235	      3.84245268	      4.46707848	      4.83257349	      0.00000000	    165.39611407	    143.60022741	    300.33763926	    129.80186863	      8.28137475	      5.96395193	      3.63016073	      3.62835467	      6.11457141	      4.95655862	      3.24327763	     99.28588147	      5.37278014	      8.17331588	      6.14184038	     27.50202827	     18.47771105	      5.28345756	      3.64854809	      6.23438641	     54.60927529	     31.09892138	     33.29498845	     45.02840724	      0.00000000	      0.00000000	      0.00000000	      0.00000000	      0.00000000	      0.00000000	     33.98693761	      2.23963542	      2.84357662	     26.74979071	     42.87179305	     10.96479874	     11.39734028	      8.32114848	      8.94948235	      3.84245268	      4.46707848	      4.83257349	      0.00000000	      6.16520667	     12.17210830	     10.51600468	      2.19244342	      8.28137475	      5.96395193	      3.63016073	      3.62835467	      6.11457141	      5.41284258	      3.24327763	      2.26319189	      5.37278014	      8.17331588	      6.14184038	     27.50202827	     18.47771105	      5.28345756	      3.64854809	      6.23438641	     16.95143970	      0.00000000	      0.00000000	      0.00000000	     21.15272613	      9.99127586	     50.64791866	     50.89929460	      5.43357956	      4.86102074	     13.19321906	      7.05615464	     18.13655012	      2.85694848	      8.79868346	      2.76458801	     36.16758254	     36.16758254	     13.43550028	     13.43550028	     30.80305684	     30.80305684	    117.86496632	    204.64335948	     25.97064056	    -15.41179087	      2.88758227	     46.15860076	   -117.86496632	   -204.64335948	    -25.97064056	      5.68270050	     -3.60082380	      3.61603027	     27.79215257	     24.07838028	     12.01020323	     -4.28947366	     -0.62535315	     11.14062014	    -27.79215257	    -24.07838028	    -12.01020323	     -0.31543412	      0.33551670	      0.09641633	   -746.12486043	   -679.95963388	    223.48228705	    -15.75435842	     16.94616857	     -0.99667924	    746.12486043	    679.95963388	   -223.48228705	    103.13024520	    -13.44467234	    303.36604514	      0.00000000	      0.00000000	      0.00000000	      0.00000000	      0.00000000	      0.00000000	      0.00000000	      0.00000000	      0.00000000	      0.00000000	      0.00000000	      0.00000000	     -0.98427669	      0.00000000	    582.67441079	    376.18508220	      0.00000000	      0.00000000	      0.00000000	      0.00000000	      0.00000000	      0.00000000	      0.00000000	      0.00000000	      0.00000001	      0.00000000
      0.16544931	     11.38698562	      8.31360559	      8.94127273	      3.83911233	      4.46342363	      4.82790532	      0.00000000	    165.42086690	    143.63079225	    300.37393924	    129.79108494	      8.27378157	      5.95881555	      3.67057361	      3.62500584	      6.10850333	      4.94935945	      3.24043802	     99.27224598	      5.36789059	      8.16586090	      6.13615136	     27.48812948	     18.46186098	      5.27876451	      3.64625576	      6.23203448	     54.79766933	     31.09293241	     33.28891827	     45.01832568	      0.00000000	      0.00000000	      0.00000000	      0.00000000	      0.00000000	      0.00000000	     34.02113580	      2.23150956	      2.84155611	     26.17615573	     43.01323947	     10.99823508	     11.38698562	      8.31360559	      8.94127273	      3.83911233	      4.46342363	      4.82790532	      0.00000000	      6.15926371	     12.16056596	     10.50665308	      2.19054637	      8.27378157	      5.95881555	      3.67057361	      3.62500584	      6.10850333	      5.40910326	      3.24043802	      2.26119920	      5.36789059	      8.16586090	      6.13615136	     27.48812948	     18.46186098	      5.27876451	      3.64625576	      6.23203448	     16.93390750	      0.00000000	      0.00000000	      0.00000000	     21.14731529	      9.98797006	     50.60554989	     50.87701221	      5.42867546	      4.85653895	     13.18032183	      7.04885145	     18.12286725	      2.85450676	      8.78952121	      2.76187329	     36.13607044	     36.13607044	     13.42285235	     13.42285235	     30.79159098	     30.79159098	    118.03778343	    205.21635853	     26.34653164	    -15.58288037	      2.89433509	     46.21542532	   -118.03778343	   -205.21635853	    -26.34653164	      5.70904500	     -3.61693919	      3.64980323	     27.81595022	     23.83520065	     11.91325226	     -4.25588434	     -0.62511104	     11.15042800	    -27.81595022	    -23.83520065	    -11.91325226	     -0.31225365	      0.33670221	      0.09262960	   -747.96031778	   -679.51044543	    223.53716926	    -15.72668929	     16.97784446	     -0.97098069	    747.96031778	    679.51044543	   -223.53716926	    103.13208568	    -13.47096376	    304.09162208	      0.00000000	      0.00000000	      0.00000000	      0.00000000	      0.00000000	      0.00000000	      0.00000000	      0.00000000	      0.00000000	      0.00000000	      0.00000000	      0.00000000	     -0.99823244	      0.00000000	    584.84339911	    377.27025227	      0.00000000	      0.00000000	      0.00000000	      0.00000000	      0.00000000	      0.00000000	      0.00000000	      0.00000000	      0.00000001	      0.00000000
      0.16570149	     11.37489905	      8.30481195	      8.93170187	      3.83521796	      4.45916273	      4.82246286	      0.00000000	    165.44605511	    143.67047478	    300.42637108	    129.77593746	      8.26492936	      5.95282721	      3.71353920	      3.62110173	      6.10142900	      4.94080792	      3.23712747	     99.25401420	      5.36219035	      8.15716987	      6.12951911	     27.47192673	     18.44338363	      5.27329319	      3.64358352	      6.22926104	     55.01899266	     31.08482122	     33.28160341	     45.00729353	      0.00000000	      0.00000000	      0.00000000	      0.00000000	      0.00000000	      0.00000000	     34.06113505	      2.22191533	      2.83906406	     26.38147563	     43.17701670	     11.03674907	     11.37489905	      8.30481195	      8.93170187	      3.83521796	      4.45916273	      4.82246286	      0.00000000	      6.15233541	     12.14709284	     10.49575070	      2.18833467	      8.26492936	      5.95282721	      3.71353920	      3.62110173	      6.10142900	      5.40474367	      3.23712747	      2.25887603	      5.36219035	      8.15716987	      6.12951911	     27.47192673	     18.44338363	      5.27329319	      3.64358352	      6.22926104	     16.91346462	      0.00000000	      0.00000000	      0.00000000	     21.14091664	      9.98407332	     50.55602133	     50.85101387	      5.42292137	      4.85127126	     13.16527619	      7.04033289	     18.10689331	      2.85166027	      8.77890738	      2.75873604	     36.09933194	     36.09933194	     13.40810736	     13.40810736	     30.77822461	     30.77822461	    118.38225332	    205.58233980	     26.54456946	    -15.67650714	      2.90189302	     46.34145542	   -118.38225332	   -205.58233980	    -26.54456946	      5.72626818	     -3.63068472	      3.67850862	     27.87129364	     23.69035482	     11.80384112	     -4.21523055	     -0.62589261	     11.17148406	    -27.87129364	    -23.69035482	    -11.80384112	     -0.31122583	      0.33903985	      0.09212387	   -750.62524919	   -677.77296515	    224.12909186	    -15.69383216	     17.03799355	     -0.99123201	    750.62524919	    677.77296515	   -224.12909186	    103.33591320	    -13.51466435	    305.16582902	      0.00000000	      0.00000000	      0.00000000	      0.00000000	      0.00000000	      0.00000000	      0.00000000	      0.00000000	      0.00000000	      0.00000000	      0.00000000	      0.00000000	     -0.99430157	      0.00000000	    587.34505805	    378.46659770	      0.00000000	      0.00000000	      0.00000000	      0.00000000	      0.00000000	      0.00000000	      0.00000000	      0.00000000	      0.00000001	      0.00000000
